<?xml version="1.0" ?><svg id="Layer_1" viewBox="0 0 80 80" xmlns="http://www.w3.org/2000/svg"><title/><path stroke-width="2px" d="M78.49,40.13l-8.83-4.91L56,17.9A5,5,0,0,0,52.06,16H11.12a5,5,0,0,0-4.85,3.79L1,40.76A1,1,0,0,0,1,41V55a1,1,0,0,0,1,1H6.06a9,9,0,0,0,17.88,0H52.06a9,9,0,0,0,17.88,0H78a1,1,0,0,0,1-1V41A1,1,0,0,0,78.49,40.13ZM39.37,18H52.06a3,3,0,0,1,2.36,1.14L66.94,35H39.37Zm-2,0V35H11.53l4.25-17ZM15,62a7,7,0,1,1,7-7A7,7,0,0,1,15,62Zm46,0a7,7,0,1,1,7-7A7,7,0,0,1,61,62Zm16-8H69.94a9,9,0,0,0-17.88,0H23.94A9,9,0,0,0,6.06,54H3V41.12L8.21,20.27A3,3,0,0,1,11.12,18h2.6L9.28,35.76a1,1,0,0,0,.18.86,1,1,0,0,0,.79.38H68.74L77,41.59Z"/></svg>