<?xml version="1.0" ?><!DOCTYPE svg  PUBLIC '-//W3C//DTD SVG 1.1//EN'  'http://www.w3.org/Graphics/SVG/1.1/DTD/svg11.dtd'><svg enable-background="new 0 0 64 64" id="Layer_1" version="1.1" viewBox="0 0 64 64" xml:space="preserve" xmlns="http://www.w3.org/2000/svg" xmlns:xlink="http://www.w3.org/1999/xlink"><g><path d="M13.842,52.733" fill="#241F20"/><g><path d="M46.508,37.282c-2.887,0-5.228,2.341-5.228,5.228c0,2.888,2.341,5.228,5.228,5.228s5.228-2.34,5.228-5.228    C51.735,39.623,49.395,37.282,46.508,37.282z M46.508,44.818c-1.274,0-2.308-1.034-2.308-2.309c0-1.273,1.033-2.308,2.308-2.308    s2.308,1.034,2.308,2.308C48.815,43.784,47.782,44.818,46.508,44.818z" fill="#241F20"/></g><g><path d="M11.44,37.282c-2.887,0-5.227,2.341-5.227,5.228c0,2.888,2.34,5.228,5.227,5.228    c2.887,0,5.228-2.34,5.228-5.228C16.668,39.623,14.328,37.282,11.44,37.282z M11.44,44.818c-1.274,0-2.308-1.034-2.308-2.309    c0-1.273,1.034-2.308,2.308-2.308c1.274,0,2.308,1.034,2.308,2.308C13.749,43.784,12.715,44.818,11.44,44.818z" fill="#241F20"/></g><g><path d="M60.797,0.788H38.135c-1.732,0-3.14,1.327-3.14,2.965v21.396c0,1.638,1.407,2.966,3.14,2.966h22.662    c1.733,0,3.14-1.328,3.14-2.966V3.753C63.937,2.115,62.53,0.788,60.797,0.788z M60.753,22.851c0,1.28-1.103,2.317-2.463,2.317    H40.523c-1.36,0-2.463-1.037-2.463-2.317V6.145c0-1.278,1.103-2.315,2.463-2.315H58.29c1.36,0,2.463,1.037,2.463,2.315V22.851z" fill="#241F20"/><g><path d="M44.346,7.283c1.059-0.181,2.548-0.316,4.646-0.316c2.122,0,3.634,0.406,4.649,1.218     c0.97,0.768,1.623,2.03,1.623,3.521c0,1.487-0.497,2.751-1.398,3.609c-1.174,1.104-2.911,1.601-4.941,1.601     c-0.451,0-0.856-0.022-1.172-0.066v5.435h-3.406V7.283z M47.752,14.187c0.293,0.067,0.654,0.09,1.149,0.09     c1.827,0,2.956-0.925,2.956-2.481c0-1.399-0.97-2.234-2.686-2.234c-0.699,0-1.173,0.068-1.42,0.136V14.187z" fill="#241F20"/></g></g><path d="M54.779,31.155H6.117l10.097-17.443c0,0,0.365-0.715,2.068-0.715H28.73c0,0,2.479,0.167,2.388-1.551   c-0.092-0.913-0.594-1.536-1.674-1.536c-1.065,0-13.899,0-13.899,0s-0.655,0.03-1.369,1.262C13.538,12.268,4.611,27.733,2.619,31.2   c-1.445,0.258-2.556,1.672-2.556,3.392v15.831c0,1.916,1.354,3.437,3.026,3.437h3.027v7.589c0,0.941,0.609,1.701,1.369,1.701h4.881   c0.744,0,1.368-0.76,1.368-1.701v-7.589H44.21v7.647c0,0.945,0.609,1.705,1.354,1.705h4.821c0.745,0,1.353-0.76,1.353-1.705v-7.647   h3.041c1.674,0,3.027-1.521,3.027-3.437V34.592C57.807,32.69,56.453,31.155,54.779,31.155z M54.765,48.338   c0,1.384-1.201,2.495-2.69,2.495H6.041c-1.491,0-2.692-1.111-2.692-2.495V36.873c0-1.369,1.201-2.495,2.692-2.495h46.033   c1.489,0,2.69,1.126,2.69,2.495V48.338z" fill="#241F20"/></g></svg>